<?xml version="1.0" encoding="UTF-8"?>
<svg width="512" height="512" viewBox="0 0 512 512" fill="none" xmlns="http://www.w3.org/2000/svg">
  <rect width="512" height="512" rx="128" fill="#3B82F6"/>
  <path d="M144 256C144 194.144 194.144 144 256 144C317.856 144 368 194.144 368 256C368 317.856 317.856 368 256 368C194.144 368 144 317.856 144 256ZM256 184C216.288 184 184 216.288 184 256C184 295.712 216.288 328 256 328C295.712 328 328 295.712 328 256C328 216.288 295.712 184 256 184Z" fill="white"/>
  <path d="M256 208C229.49 208 208 229.49 208 256C208 282.51 229.49 304 256 304C282.51 304 304 282.51 304 256C304 229.49 282.51 208 256 208Z" fill="white"/>
</svg> 